<?xml version="1.0" encoding="UTF-8" standalone="no"?>
<!-- Created with Inkscape (http://www.inkscape.org/) -->

<svg
   xmlns:dc="http://purl.org/dc/elements/1.1/"
   xmlns:cc="http://creativecommons.org/ns#"
   xmlns:rdf="http://www.w3.org/1999/02/22-rdf-syntax-ns#"
   xmlns:svg="http://www.w3.org/2000/svg"
   xmlns="http://www.w3.org/2000/svg"
   xmlns:sodipodi="http://sodipodi.sourceforge.net/DTD/sodipodi-0.dtd"
   xmlns:inkscape="http://www.inkscape.org/namespaces/inkscape"
   width="800"
   height="480"
   viewBox="0 0 211.66667 127"
   version="1.1"
   id="svg4539"
   inkscape:version="0.92.5 (2060ec1f9f, 2020-04-08)"
   sodipodi:docname="background.svg"
   inkscape:export-filename="/home/templex/Videos/background1.png"
   inkscape:export-xdpi="96"
   inkscape:export-ydpi="96">
  <defs
     id="defs4533" />
  <sodipodi:namedview
     id="base"
     pagecolor="#000000"
     bordercolor="#666666"
     borderopacity="1.0"
     inkscape:pageopacity="1"
     inkscape:pageshadow="2"
     inkscape:zoom="0.99"
     inkscape:cx="400"
     inkscape:cy="240"
     inkscape:document-units="mm"
     inkscape:current-layer="g2686"
     showgrid="false"
     units="px"
     inkscape:pagecheckerboard="true"
     inkscape:window-width="1280"
     inkscape:window-height="714"
     inkscape:window-x="0"
     inkscape:window-y="29"
     inkscape:window-maximized="1" />
  <metadata
     id="metadata4536">
    <rdf:RDF>
      <cc:Work
         rdf:about="">
        <dc:format>image/svg+xml</dc:format>
        <dc:type
           rdf:resource="http://purl.org/dc/dcmitype/StillImage" />
        <dc:title />
      </cc:Work>
    </rdf:RDF>
  </metadata>
  <g
     inkscape:label="Layer 1"
     inkscape:groupmode="layer"
     id="layer1"
     transform="translate(0,-170.00001)"
     style="display:none">
    <path
       style="display:inline;fill:none;stroke:#ffffff;stroke-width:2.5987916;stroke-linecap:butt;stroke-linejoin:miter;stroke-miterlimit:4;stroke-dasharray:none;stroke-opacity:1"
       d="m 97.364665,215.53203 v 3.16199 l -3.874063,0.92604 c 0,0 -3.435505,0.44495 -4.936997,1.23426 -0.917352,0.48221 -1.806587,1.16336 -2.331359,2.05706 -0.544799,0.92783 -0.685694,3.15419 -0.685694,3.15419 l -0.548547,6.44551 c 0,0 -0.457605,3.49011 0.137135,5.07413 0.604862,1.61097 3.291324,3.97701 3.291324,3.97701 l 0.959971,0.54857 -7.542619,2.60563 c 0,0 -2.573172,0.59892 -3.428465,1.50851 -0.634069,0.67433 -0.939178,1.68026 -0.959971,2.60563 -0.02367,1.0551 0.336424,2.16559 0.959971,3.01707 0.562017,0.76743 1.457472,1.26995 2.331359,1.64566 1.498976,0.64443 4.799842,0.95996 4.799842,0.95996 l 37.713118,-0.13713 c 0,0 2.72628,-1.03725 3.70273,-2.05709 0.70691,-0.73831 1.324,-1.7217 1.37139,-2.74277 0.041,-0.88192 -0.95998,-2.4685 -0.95998,-2.4685 0,0 -1.61264,-1.64347 -2.60562,-2.1942 -1.42854,-0.79233 -3.0705,-1.14335 -4.6627,-1.50853 -2.33779,-0.71873 -5.75983,-1.50852 -5.75983,-1.50852 0,0 3.98376,-1.79059 4.18106,-3.62445 0.43345,-4.02879 -0.022,-9.17677 -0.0157,-13.44856 0.002,-1.43868 -1.29597,-2.56589 -3.01704,-3.08635 l -4.98824,-1.50854 -4.75183,-1.31647 0.1581,-2.5296 0.86641,-0.36267 c 0,0 2.56817,-1.13221 3.53419,-2.10543 0.88631,-0.89291 1.85611,-2.26749 1.90759,-3.25682 0.048,-0.92131 -0.0472,-2.52565 -0.48077,-3.68666 -0.62132,-1.66414 -1.82773,-3.06003 -2.94267,-4.4429 -1.01252,-1.25586 -3.37621,-3.46737 -3.37621,-3.46737 l -2.98673,-2.75679 -3.63518,2.93836 c 0,0 -3.415011,2.84307 -4.746013,4.5982 -0.997906,1.31591 -2.017006,2.74091 -2.359746,4.35646 -0.321677,1.51629 0.05368,3.75663 0.363857,4.63588 0.394521,1.11835 2.800017,2.36924 2.800017,2.36924 z"
       id="path953-3"
       inkscape:connector-curvature="0"
       sodipodi:nodetypes="cccssccscccssssccsscsccsssccccsssscccssscc" />
    <text
       xml:space="preserve"
       style="font-style:normal;font-variant:normal;font-weight:normal;font-stretch:normal;font-size:6.79184198px;line-height:1;font-family:'TH Baijam';-inkscape-font-specification:'TH Baijam';text-align:center;letter-spacing:0px;word-spacing:0px;text-anchor:middle;fill:#999999;fill-opacity:1;stroke:none;stroke-width:0.16979603"
       x="103.38113"
       y="263.0127"
       id="text5101"><tspan
         sodipodi:role="line"
         id="tspan5099"
         x="104.3999"
         y="263.0127"
         style="line-height:1;text-align:center;text-anchor:middle;fill:#999999;stroke-width:0.16979603">สัพเพ ธัมมา นาลัง อภินิเวสายะ </tspan><tspan
         sodipodi:role="line"
         x="103.38113"
         y="269.80453"
         style="line-height:1;text-align:center;text-anchor:middle;fill:#999999;stroke-width:0.16979603"
         id="tspan5103">สิ่งทั้งหลายทั้งปวง ไม่ควรยึดมั่นถือมั่น</tspan></text>
    <text
       xml:space="preserve"
       style="font-style:normal;font-variant:normal;font-weight:normal;font-stretch:normal;font-size:7.91077423px;line-height:0.69999999;font-family:'TH Baijam';-inkscape-font-specification:'TH Baijam';text-align:start;letter-spacing:0px;word-spacing:0px;text-anchor:start;fill:#999999;fill-opacity:1;stroke:none;stroke-width:0.19776934"
       x="68.235779"
       y="277.16409"
       id="text5107"><tspan
         sodipodi:role="line"
         id="tspan5105"
         x="68.235779"
         y="277.16409"
         style="fill:#999999;stroke-width:0.19776934">Nothing is worth insisting on</tspan></text>
  </g>
  <g
     style="display:inline"
     transform="translate(0,-170.00001)"
     id="g2686"
     inkscape:groupmode="layer"
     inkscape:label="Layer 2">
    <path
       sodipodi:nodetypes="cccssccscccssssccsscsccsssccccsssscccssscc"
       inkscape:connector-curvature="0"
       id="path2674"
       d="m 97.364665,230.34879 v 3.16199 l -3.874063,0.92604 c 0,0 -3.435505,0.44495 -4.936997,1.23426 -0.917352,0.48221 -1.806587,1.16336 -2.331359,2.05706 -0.544799,0.92783 -0.685694,3.15419 -0.685694,3.15419 l -0.548547,6.44551 c 0,0 -0.457605,3.49011 0.137135,5.07413 0.604862,1.61097 3.291324,3.97701 3.291324,3.97701 l 0.959971,0.54857 -7.542619,2.60563 c 0,0 -2.573172,0.59892 -3.428465,1.50851 -0.634069,0.67433 -0.939178,1.68026 -0.959971,2.60563 -0.02367,1.0551 0.336424,2.16559 0.959971,3.01707 0.562017,0.76743 1.457472,1.26995 2.331359,1.64566 1.498976,0.64443 4.799842,0.95996 4.799842,0.95996 l 37.713118,-0.13713 c 0,0 2.72628,-1.03725 3.70273,-2.05709 0.70691,-0.73831 1.324,-1.7217 1.37139,-2.74277 0.041,-0.88192 -0.95998,-2.4685 -0.95998,-2.4685 0,0 -1.61264,-1.64347 -2.60562,-2.1942 -1.42854,-0.79233 -3.0705,-1.14335 -4.6627,-1.50853 -2.33779,-0.71873 -5.75983,-1.50852 -5.75983,-1.50852 0,0 3.98376,-1.79059 4.18106,-3.62445 0.43345,-4.02879 -0.022,-9.17677 -0.0157,-13.44856 0.002,-1.43868 -1.29597,-2.56589 -3.01704,-3.08635 l -4.98824,-1.50854 -4.75183,-1.31647 0.1581,-2.5296 0.86641,-0.36267 c 0,0 2.56817,-1.13221 3.53419,-2.10543 0.88631,-0.89291 1.85611,-2.26749 1.90759,-3.25682 0.048,-0.92131 -0.0472,-2.52565 -0.48077,-3.68666 -0.62132,-1.66414 -1.82773,-3.06003 -2.94267,-4.4429 -1.01252,-1.25586 -3.37621,-3.46737 -3.37621,-3.46737 l -2.98673,-2.75679 -3.63518,2.93836 c 0,0 -3.415011,2.84307 -4.746013,4.5982 -0.997906,1.31591 -2.017006,2.74091 -2.359746,4.35646 -0.321677,1.51629 0.05368,3.75663 0.363857,4.63588 0.394521,1.11835 2.800017,2.36924 2.800017,2.36924 z"
       style="display:inline;fill:none;stroke:#ffffff;stroke-width:2.5987916;stroke-linecap:butt;stroke-linejoin:miter;stroke-miterlimit:4;stroke-dasharray:none;stroke-opacity:1" />
  </g>
</svg>
